<svg xmlns="http://www.w3.org/2000/svg" width="400" height="258" fill="none"><path fill="#000" fill-rule="evenodd" d="M165.409 0c39.342 0 69.15 35.51 62.321 74.245l-11.534 65.42c-5.331 30.239-31.611 52.284-62.323 52.283l-70.745-.003a15.82 15.82 0 0 0-15.581 13.07l-6.753 38.282C59.294 251.8 51.904 258 43.267 258H17.802C6.737 258-1.645 248.013.275 237.119L32.86 52.284C38.19 22.046 64.468 0 95.18 0zm-85.65 123.753c-8.605-1.516-16.81 4.228-18.327 12.83s4.228 16.805 12.832 18.322 16.81-4.227 18.327-12.829-4.228-16.806-12.832-18.323m41.768 0c-8.604-1.516-16.809 4.227-18.327 12.83-1.517 8.602 4.229 16.805 12.833 18.322 8.605 1.517 16.81-4.227 18.327-12.829s-4.228-16.806-12.833-18.323M87.968 82.992c-8.604-1.517-16.81 4.227-18.327 12.83s4.228 16.805 12.833 18.321 16.81-4.227 18.327-12.829-4.228-16.805-12.833-18.322m41.769 0c-8.605-1.517-16.81 4.227-18.327 12.83s4.228 16.805 12.833 18.321c8.604 1.517 16.809-4.227 18.327-12.829 1.517-8.602-4.229-16.805-12.833-18.322m-33.56-40.761c-8.604-1.517-16.809 4.227-18.326 12.829s4.228 16.805 12.832 18.322 16.81-4.227 18.327-12.83c1.517-8.601-4.228-16.805-12.832-18.321m41.769 0c-8.604-1.517-16.809 4.227-18.327 12.829-1.517 8.602 4.228 16.805 12.833 18.322s16.81-4.227 18.327-12.83c1.517-8.601-4.228-16.804-12.833-18.321" clip-rule="evenodd"/><path fill="#000" d="M392.068 49.579c4.926-.012 8.665 4.43 7.81 9.28l-4.593 26.038a7.91 7.91 0 0 1-7.771 6.535l-132.821.346c-4.926.011-8.665-4.431-7.81-9.281l4.593-26.037a7.91 7.91 0 0 1 7.771-6.536z"/></svg>